<?xml version="1.0" standalone="no"?>
<!DOCTYPE svg PUBLIC "-//W3C//DTD SVG 20010904//EN"
 "http://www.w3.org/TR/2001/REC-SVG-20010904/DTD/svg10.dtd">
<svg version="1.0" xmlns="http://www.w3.org/2000/svg"
 width="576.000000pt" height="388.000000pt" viewBox="0 0 576.000000 388.000000"
 preserveAspectRatio="xMidYMid meet">

<g transform="translate(0.000000,388.000000) scale(0.100000,-0.100000)"
fill="#000000" stroke="none">
<path d="M3413 3185 c-7 -8 -13 -20 -13 -27 0 -8 -9 -20 -20 -28 -11 -8 -20
-22 -20 -32 0 -10 -4 -18 -10 -18 -5 0 -10 -8 -10 -18 0 -10 -9 -24 -20 -32
-11 -8 -20 -22 -20 -32 0 -10 -4 -18 -10 -18 -5 0 -10 -13 -10 -30 0 -27 3
-30 30 -30 23 0 30 4 30 20 0 11 5 20 10 20 6 0 10 8 10 18 0 10 9 24 20 32
11 8 20 22 20 32 0 10 5 18 10 18 6 0 10 8 10 18 0 10 9 24 20 32 27 19 29 90
3 90 -10 -1 -24 -7 -30 -15z"/>
<path d="M2390 3163 c-10 -12 -11 -18 -2 -21 7 -2 12 -12 12 -23 0 -10 5 -19
10 -19 6 0 10 -9 10 -20 0 -11 5 -20 10 -20 6 0 10 -8 10 -18 0 -10 9 -24 20
-32 11 -8 20 -22 20 -32 0 -10 5 -18 10 -18 6 0 10 -7 10 -16 0 -23 25 -44 54
-44 19 0 26 5 26 20 0 11 -4 20 -10 20 -5 0 -10 9 -10 20 0 11 -4 20 -10 20
-5 0 -10 8 -10 18 0 10 -9 24 -20 32 -11 8 -20 22 -20 32 0 10 -4 18 -10 18
-5 0 -10 8 -10 18 0 10 -9 24 -20 32 -11 8 -20 22 -20 32 0 23 -30 23 -50 1z"/>
<path d="M2860 2534 c0 -26 -6 -51 -14 -60 -17 -16 -66 -19 -66 -4 0 6 -7 10
-16 10 -9 0 -26 10 -37 23 -13 15 -21 18 -24 10 -3 -7 -11 -13 -20 -13 -17 0
-43 -24 -43 -40 0 -7 14 -25 30 -40 53 -50 33 -100 -40 -100 -46 0 -70 -17
-70 -50 0 -36 24 -50 84 -50 l56 0 0 -36 c0 -27 -7 -43 -31 -65 l-30 -28 25
-26 c30 -30 66 -32 86 -5 8 12 26 20 42 20 37 0 36 24 -2 60 -16 15 -30 35
-30 44 0 9 -4 16 -10 16 -5 0 -10 18 -10 40 0 22 5 40 10 40 6 0 10 7 10 15 0
20 45 65 65 65 8 0 15 5 15 10 0 6 32 10 75 10 73 0 77 -1 110 -35 19 -19 35
-41 35 -50 0 -8 5 -15 10 -15 6 0 10 -21 10 -46 0 -40 -5 -50 -40 -84 -48 -46
-52 -70 -12 -70 16 0 34 -8 42 -20 26 -36 110 -20 110 20 0 7 -13 25 -30 40
-53 50 -33 100 40 100 51 0 70 18 70 64 l0 36 -56 0 c-87 0 -112 46 -54 100
36 34 37 44 5 75 -31 32 -41 31 -75 -5 -21 -23 -37 -30 -64 -30 -29 0 -36 4
-36 20 0 11 -4 20 -10 20 -5 0 -10 18 -10 40 l0 40 -50 0 -50 0 0 -46z"/>
<path d="M3860 2510 c0 -5 -22 -10 -50 -10 -27 0 -50 -4 -50 -10 0 -5 -22 -10
-50 -10 -27 0 -50 -4 -50 -10 0 -5 -9 -10 -20 -10 -24 0 -25 -6 -6 -26 17 -16
126 -20 126 -4 0 6 23 10 50 10 28 0 50 5 50 10 0 6 16 10 36 10 19 0 42 7 50
15 14 13 14 17 0 30 -16 17 -86 21 -86 5z"/>
<path d="M1900 2460 c0 -13 7 -20 20 -20 11 0 20 -4 20 -10 0 -6 30 -10 70
-10 40 0 70 -4 70 -10 0 -6 30 -10 70 -10 57 0 70 3 70 16 0 31 -27 44 -94 44
-37 0 -66 4 -66 10 0 6 -33 10 -80 10 -73 0 -80 -2 -80 -20z"/>
<path d="M5460 2350 c0 -6 -37 -10 -90 -10 -53 0 -90 -4 -90 -10 0 -5 -18 -10
-40 -10 -22 0 -40 -4 -40 -10 0 -5 -9 -10 -20 -10 -11 0 -20 -4 -20 -10 0 -5
-9 -10 -20 -10 -11 0 -20 -4 -20 -10 0 -5 -7 -10 -15 -10 -20 0 -145 -125
-145 -145 0 -8 -4 -15 -10 -15 -5 0 -10 -13 -10 -30 0 -16 -4 -30 -10 -30 -6
0 -10 -30 -10 -70 l0 -70 -106 0 c-128 0 -134 -4 -134 -90 0 -86 6 -90 134
-90 l106 0 0 -470 c0 -463 0 -470 20 -470 11 0 20 -4 20 -10 0 -6 40 -10 100
-10 60 0 100 4 100 10 0 6 9 10 20 10 20 0 20 7 20 456 0 381 2 458 14 470 11
11 49 14 176 14 191 0 190 0 190 90 0 40 -5 66 -14 76 -12 11 -51 14 -190 14
l-176 0 0 50 c0 28 5 50 10 50 6 0 10 11 10 25 0 35 80 115 115 115 14 0 25 5
25 10 0 6 29 10 66 10 86 0 94 9 94 100 0 49 -5 76 -14 86 -17 16 -46 19 -46
4z"/>
<path d="M273 2325 c-17 -18 -19 -1245 -3 -1245 6 0 10 -18 10 -40 0 -22 5
-40 10 -40 6 0 10 -9 10 -20 0 -11 5 -20 10 -20 6 0 10 -7 10 -15 0 -20 85
-105 105 -105 8 0 15 -4 15 -10 0 -5 9 -10 20 -10 11 0 20 -4 20 -10 0 -5 9
-10 20 -10 11 0 20 -4 20 -10 0 -5 14 -10 30 -10 17 0 30 -4 30 -10 0 -6 27
-10 60 -10 33 0 60 -4 60 -10 0 -6 40 -10 100 -10 60 0 100 4 100 10 0 6 23
10 50 10 28 0 50 5 50 10 0 6 14 10 30 10 17 0 30 5 30 10 0 6 14 10 30 10 17
0 30 5 30 10 0 6 7 10 16 10 9 0 29 14 44 30 15 17 35 30 44 30 9 0 16 8 16
18 0 10 9 24 20 32 11 8 20 22 20 32 0 10 5 18 10 18 6 0 10 14 10 30 0 17 5
30 10 30 6 0 10 107 10 300 0 193 -4 300 -10 300 -5 0 -10 13 -10 28 0 16 -8
34 -20 42 -11 8 -20 20 -20 28 0 17 -65 82 -82 82 -8 0 -20 9 -28 20 -8 11
-22 20 -32 20 -10 0 -18 5 -18 10 0 6 -13 10 -30 10 -16 0 -30 5 -30 10 0 6
-22 10 -50 10 -27 0 -50 5 -50 10 0 6 -40 10 -100 10 -60 0 -100 -4 -100 -10
0 -5 -18 -10 -40 -10 -22 0 -40 -4 -40 -10 0 -5 -13 -10 -28 -10 -16 0 -34 -8
-42 -20 -8 -11 -18 -20 -22 -20 -4 0 -8 106 -8 236 0 191 -3 238 -14 250 -21
20 -255 20 -273 -1z m567 -595 c0 -5 18 -10 40 -10 22 0 40 -4 40 -10 0 -5 7
-10 15 -10 9 0 31 -16 50 -35 19 -19 35 -41 35 -50 0 -8 5 -15 10 -15 6 0 10
-97 10 -270 0 -173 -4 -270 -10 -270 -5 0 -10 -7 -10 -15 0 -20 -65 -85 -85
-85 -8 0 -15 -4 -15 -10 0 -5 -22 -10 -50 -10 -27 0 -50 -4 -50 -10 0 -5 -9
-10 -20 -10 -11 0 -20 5 -20 10 0 6 -22 10 -50 10 -27 0 -50 5 -50 10 0 6 -11
10 -25 10 -29 0 -75 40 -75 65 0 8 -4 15 -10 15 -6 0 -10 103 -10 290 0 187 4
290 10 290 6 0 10 7 10 15 0 20 45 65 65 65 8 0 15 5 15 10 0 6 18 10 40 10
22 0 40 5 40 10 0 6 23 10 50 10 28 0 50 -4 50 -10z"/>
<path d="M3920 1910 c0 -6 -27 -10 -60 -10 -33 0 -60 -4 -60 -10 0 -5 -13 -10
-30 -10 -16 0 -30 -4 -30 -10 0 -5 -13 -10 -28 -10 -16 0 -34 -8 -42 -20 -8
-11 -20 -20 -27 -20 -19 0 -123 -106 -123 -125 0 -8 -4 -15 -10 -15 -5 0 -10
-18 -10 -40 0 -22 -4 -40 -10 -40 -6 0 -10 -97 -10 -270 0 -173 4 -270 10
-270 6 0 10 -17 10 -38 0 -26 6 -42 20 -52 11 -8 20 -20 20 -27 0 -19 86 -103
105 -103 8 0 15 -4 15 -10 0 -5 9 -10 20 -10 11 0 20 -4 20 -10 0 -5 9 -10 20
-10 11 0 20 -4 20 -10 0 -5 14 -10 30 -10 17 0 30 -4 30 -10 0 -6 30 -10 70
-10 40 0 70 -4 70 -10 0 -6 30 -10 70 -10 40 0 70 4 70 10 0 6 27 10 60 10 33
0 60 4 60 10 0 6 18 10 40 10 22 0 40 5 40 10 0 6 9 10 20 10 11 0 20 5 20 10
0 6 8 10 18 10 10 0 24 9 32 20 8 11 20 20 28 20 18 0 82 66 82 85 0 8 5 15
10 15 6 0 10 9 10 20 0 11 5 20 10 20 6 0 10 18 10 39 0 22 5 41 12 43 9 3 8
9 -4 21 -14 14 -38 17 -138 17 -129 0 -150 -7 -150 -50 0 -24 -82 -110 -105
-110 -8 0 -15 -4 -15 -10 0 -5 -18 -10 -40 -10 -22 0 -40 -4 -40 -10 0 -5 -13
-10 -30 -10 -16 0 -30 5 -30 10 0 6 -18 10 -40 10 -22 0 -40 5 -40 10 0 6 -11
10 -25 10 -29 0 -75 40 -75 65 0 8 -4 15 -10 15 -6 0 -10 37 -10 90 l0 90 190
0 c120 0 190 4 190 10 0 6 18 10 40 10 22 0 40 5 40 10 0 6 14 10 30 10 17 0
30 5 30 10 0 6 13 10 28 10 16 0 34 8 42 20 8 11 20 20 27 20 19 0 103 86 103
105 0 8 5 15 10 15 6 0 10 9 10 20 0 11 5 20 10 20 6 0 10 33 10 80 0 47 -4
80 -10 80 -5 0 -10 13 -10 28 0 16 -8 34 -20 42 -11 8 -20 20 -20 28 0 17 -45
62 -62 62 -8 0 -20 9 -28 20 -8 11 -22 20 -32 20 -10 0 -18 5 -18 10 0 6 -9
10 -20 10 -11 0 -20 5 -20 10 0 6 -18 10 -40 10 -22 0 -40 5 -40 10 0 6 -22
10 -50 10 -27 0 -50 5 -50 10 0 6 -40 10 -100 10 -60 0 -100 -4 -100 -10z
m140 -180 c0 -5 18 -10 40 -10 22 0 40 -4 40 -10 0 -5 7 -10 15 -10 20 0 85
-65 85 -85 0 -8 5 -15 10 -15 6 0 10 -18 10 -40 0 -22 -4 -40 -10 -40 -5 0
-10 -7 -10 -15 0 -26 -66 -85 -95 -85 -14 0 -25 -4 -25 -10 0 -6 -63 -10 -170
-10 l-170 0 0 115 0 116 35 34 c19 19 41 35 50 35 8 0 15 5 15 10 0 6 18 10
40 10 22 0 40 5 40 10 0 6 23 10 50 10 28 0 50 -4 50 -10z"/>
<path d="M2100 1890 c0 -5 -22 -10 -50 -10 -27 0 -50 -4 -50 -10 0 -5 -18 -10
-40 -10 -22 0 -40 -4 -40 -10 0 -5 -9 -10 -20 -10 -11 0 -20 -4 -20 -10 0 -5
-8 -10 -18 -10 -10 0 -24 -9 -32 -20 -8 -11 -20 -20 -28 -20 -18 0 -82 -66
-82 -85 0 -8 -4 -15 -10 -15 -5 0 -10 -9 -10 -20 0 -11 -4 -20 -10 -20 -5 0
-10 -13 -10 -30 0 -16 -4 -30 -10 -30 -6 0 -10 -140 -10 -400 0 -393 0 -400
20 -400 11 0 20 -4 20 -10 0 -17 209 -13 226 4 12 12 14 79 14 400 0 251 4
386 10 386 6 0 10 7 10 15 0 9 20 36 45 60 24 25 51 45 60 45 8 0 15 5 15 10
0 6 18 10 40 10 22 0 40 5 40 10 0 6 42 10 106 10 128 0 134 4 134 90 0 89 -3
90 -164 90 -84 0 -136 -4 -136 -10z"/>
<path d="M2653 1545 c-7 -8 -13 -21 -13 -30 0 -13 32 -15 260 -15 230 0 260 2
260 16 0 41 -18 44 -262 44 -188 -1 -235 -3 -245 -15z"/>
<path d="M2653 1425 c-7 -8 -13 -21 -13 -30 0 -13 32 -15 260 -15 230 0 260 2
260 16 0 41 -18 44 -262 44 -188 -1 -235 -3 -245 -15z"/>
<path d="M2653 1305 c-17 -18 -16 -33 1 -51 12 -11 61 -14 260 -14 l246 0 0
26 c0 52 -9 54 -262 54 -188 -1 -235 -3 -245 -15z"/>
<path d="M2640 1150 l0 -30 246 0 c205 0 248 2 260 15 14 13 14 17 0 30 -12
13 -55 15 -260 15 l-246 0 0 -30z"/>
<path d="M2640 1030 l0 -30 246 0 c205 0 248 2 260 15 14 13 14 17 0 30 -12
13 -55 15 -260 15 l-246 0 0 -30z"/>
<path d="M2640 910 c0 -23 4 -30 20 -30 11 0 20 5 20 10 0 6 70 10 190 10 120
0 190 -4 190 -10 0 -16 70 -12 86 5 14 13 14 17 0 30 -12 13 -55 15 -260 15
l-246 0 0 -30z"/>
<path d="M2733 825 c-7 -8 -13 -26 -13 -40 l0 -25 160 0 160 0 0 26 c0 48 -17
54 -162 54 -102 -1 -136 -4 -145 -15z"/>
</g>
</svg>
